<svg xmlns="http://www.w3.org/2000/svg" xmlns:xlink="http://www.w3.org/1999/xlink" width="874" height="1804.782" viewBox="0 0 874 1804.782">
  <defs>
    <style>
      .cls-1 {
        fill: #272627;
      }

      .cls-2 {
        fill: #1d1b1c;
        opacity: 0.2;
      }

      .cls-3 {
        opacity: 0.388;
        fill: url(#radial-gradient);
      }

      .cls-4 {
        fill: none;
      }

      .cls-5 {
        fill: #f5f5f6;
      }

      .cls-6 {
        fill: rgba(216,216,216,0.03);
      }

      .cls-7 {
        fill: #fafbfd;
      }

      .cls-8 {
        fill: url(#linear-gradient);
      }

      .cls-9 {
        fill: url(#linear-gradient-3);
      }

      .cls-10 {
        fill: url(#linear-gradient-4);
      }

      .cls-11 {
        opacity: 0.6;
        fill: url(#linear-gradient-7);
      }

      .cls-12 {
        fill: url(#linear-gradient-8);
      }

      .cls-13 {
        fill: url(#linear-gradient-9);
      }

      .cls-14 {
        fill: url(#linear-gradient-10);
      }

      .cls-15 {
        fill: url(#linear-gradient-11);
      }

      .cls-16 {
        fill: #fff;
        stroke: #707070;
      }

      .cls-17 {
        opacity: 0.801;
      }

      .cls-18 {
        clip-path: url(#clip-path);
      }

      .cls-19 {
        fill: rgba(0,0,0,0.15);
      }

      .cls-20 {
        clip-path: url(#clip-path-2);
      }

      .cls-21 {
        fill: #323234;
      }

      .cls-22 {
        fill: url(#radial-gradient-2);
      }

      .cls-23 {
        clip-path: url(#clip-path-3);
      }

      .cls-24 {
        fill: #bee5ff;
      }

      .cls-25 {
        fill: #75c8ff;
      }

      .cls-26 {
        fill: #3358b6;
      }

      .cls-27 {
        fill: #00154f;
      }

      .cls-28 {
        fill: rgba(255,255,255,0);
        stroke: rgba(112,112,112,0.74);
      }

      .cls-29 {
        filter: url(#Screen_Border);
      }

      .cls-30 {
        filter: url(#Mask-3);
      }

      .cls-31 {
        filter: url(#Sensor);
      }

      .cls-32 {
        filter: url(#Rectangle_165-4);
      }

      .cls-33 {
        filter: url(#Rectangle_165-3);
      }

      .cls-34 {
        filter: url(#Rectangle_165-2);
      }

      .cls-35 {
        filter: url(#Rectangle_165);
      }

      .cls-36 {
        filter: url(#Glass);
      }

      .cls-37 {
        filter: url(#Inner_Shadow);
      }

      .cls-38 {
        filter: url(#Middle_Shadow);
      }

      .cls-39 {
        filter: url(#Mask);
      }
    </style>
    <radialGradient id="radial-gradient" cx="0.5" cy="0" r="1" gradientUnits="objectBoundingBox">
      <stop offset="0" stop-color="#2a4893"/>
      <stop offset="1" stop-color="#213054"/>
    </radialGradient>
    <filter id="Mask" x="288" y="104.5" width="24" height="24" filterUnits="userSpaceOnUse">
      <feOffset input="SourceAlpha"/>
      <feGaussianBlur stdDeviation="1.5" result="blur"/>
      <feFlood flood-opacity="0.4"/>
      <feComposite operator="in" in2="blur"/>
      <feComposite in="SourceGraphic"/>
    </filter>
    <filter id="Middle_Shadow" x="54.916" y="1749.493" width="761.967" height="55.289" filterUnits="userSpaceOnUse">
      <feOffset dy="2" input="SourceAlpha"/>
      <feGaussianBlur stdDeviation="6" result="blur-2"/>
      <feFlood flood-opacity="0.078"/>
      <feComposite operator="in" in2="blur-2"/>
      <feComposite in="SourceGraphic"/>
    </filter>
    <filter id="Inner_Shadow" x="86.551" y="1759.167" width="699.9" height="33.645" filterUnits="userSpaceOnUse">
      <feOffset dy="2" input="SourceAlpha"/>
      <feGaussianBlur stdDeviation="4" result="blur-3"/>
      <feFlood flood-opacity="0.239"/>
      <feComposite operator="in" in2="blur-3"/>
      <feComposite in="SourceGraphic"/>
    </filter>
    <filter id="Glass" x="21.5" y="16" width="830" height="1744" filterUnits="userSpaceOnUse">
      <feOffset input="SourceAlpha"/>
      <feGaussianBlur result="blur-4"/>
      <feFlood flood-color="#fff" flood-opacity="0.451"/>
      <feComposite operator="in" in2="blur-4"/>
      <feComposite in="SourceGraphic"/>
    </filter>
    <linearGradient id="linear-gradient" x1="0.5" y1="-0.008" x2="0.5" y2="1" gradientUnits="objectBoundingBox">
      <stop offset="0" stop-color="#fff" stop-opacity="0"/>
      <stop offset="0.031" stop-color="#fff"/>
      <stop offset="0.968" stop-color="#fff"/>
      <stop offset="1" stop-color="#f1f3f4" stop-opacity="0"/>
    </linearGradient>
    <linearGradient id="linear-gradient-3" y1="0.5" x2="1" y2="0.5" gradientUnits="objectBoundingBox">
      <stop offset="0" stop-color="#969696"/>
      <stop offset="0.33" stop-color="#bebfc1"/>
      <stop offset="1" stop-color="#e0e1e3"/>
    </linearGradient>
    <linearGradient id="linear-gradient-4" x1="1" x2="0" xlink:href="#linear-gradient-3"/>
    <linearGradient id="linear-gradient-7" x1="0.5" x2="0.5" y2="1" gradientUnits="objectBoundingBox">
      <stop offset="0" stop-color="#2c2c2c"/>
      <stop offset="1" stop-color="#1d1d1d"/>
    </linearGradient>
    <linearGradient id="linear-gradient-8" x1="0.5" x2="0.5" y2="1" gradientUnits="objectBoundingBox">
      <stop offset="0" stop-color="#afb0b1"/>
      <stop offset="0.159" stop-color="#dddedf"/>
      <stop offset="0.774" stop-color="#f4f5f6"/>
      <stop offset="0.774" stop-color="#f3f4f5"/>
      <stop offset="0.877" stop-color="#dfe0e1"/>
      <stop offset="1" stop-color="#4d4e4f"/>
    </linearGradient>
    <filter id="Rectangle_165" x="0" y="225.5" width="10" height="73" filterUnits="userSpaceOnUse">
      <feOffset dx="1" input="SourceAlpha"/>
      <feGaussianBlur stdDeviation="0.5" result="blur-5"/>
      <feFlood flood-opacity="0.102"/>
      <feComposite operator="in" in2="blur-5"/>
      <feComposite in="SourceGraphic"/>
    </filter>
    <linearGradient id="linear-gradient-9" x1="0.5" x2="0.5" y2="0.983" gradientUnits="objectBoundingBox">
      <stop offset="0" stop-color="#fffcfc"/>
      <stop offset="0.021" stop-color="#6e6f6f"/>
      <stop offset="0.142" stop-color="#f7f8f9"/>
      <stop offset="0.849" stop-color="#f4f5f6"/>
      <stop offset="0.894" stop-color="#a4a6a8"/>
      <stop offset="1" stop-color="#707579"/>
    </linearGradient>
    <linearGradient id="linear-gradient-10" x1="0.5" x2="0.5" y2="1" gradientUnits="objectBoundingBox">
      <stop offset="0" stop-color="#afb0b1"/>
      <stop offset="0.082" stop-color="#eff0f1"/>
      <stop offset="0.159" stop-color="#dddedf"/>
      <stop offset="0.774" stop-color="#f4f5f6"/>
      <stop offset="0.774" stop-color="#f3f4f5"/>
      <stop offset="0.877" stop-color="#dfe0e1"/>
      <stop offset="0.953" stop-color="#fff"/>
      <stop offset="1" stop-color="#4d4e4f"/>
    </linearGradient>
    <filter id="Rectangle_165-2" x="1" y="377.5" width="10" height="134" filterUnits="userSpaceOnUse">
      <feOffset dx="1" input="SourceAlpha"/>
      <feGaussianBlur stdDeviation="0.5" result="blur-6"/>
      <feFlood flood-opacity="0.102"/>
      <feComposite operator="in" in2="blur-6"/>
      <feComposite in="SourceGraphic"/>
    </filter>
    <linearGradient id="linear-gradient-11" x1="0.5" x2="0.5" y2="0.983" gradientUnits="objectBoundingBox">
      <stop offset="0" stop-color="#fffcfc"/>
      <stop offset="0.021" stop-color="#2e2f2f"/>
      <stop offset="0.047" stop-color="#383838"/>
      <stop offset="0.113" stop-color="#e4e5e6"/>
      <stop offset="0.142" stop-color="#f7f8f9"/>
      <stop offset="0.849" stop-color="#f4f5f6"/>
      <stop offset="0.894" stop-color="#8d8e8f"/>
      <stop offset="0.98" stop-color="#404142"/>
      <stop offset="1" stop-color="#fff"/>
    </linearGradient>
    <filter id="Rectangle_165-3" x="1" y="538.5" width="10" height="135" filterUnits="userSpaceOnUse">
      <feOffset dx="1" input="SourceAlpha"/>
      <feGaussianBlur stdDeviation="0.5" result="blur-7"/>
      <feFlood flood-opacity="0.102"/>
      <feComposite operator="in" in2="blur-7"/>
      <feComposite in="SourceGraphic"/>
    </filter>
    <filter id="Rectangle_165-4" x="864" y="376.958" width="10" height="134.083" filterUnits="userSpaceOnUse">
      <feOffset dx="1" input="SourceAlpha"/>
      <feGaussianBlur stdDeviation="0.5" result="blur-8"/>
      <feFlood flood-opacity="0.102"/>
      <feComposite operator="in" in2="blur-8"/>
      <feComposite in="SourceGraphic"/>
    </filter>
    <clipPath id="clip-path">
      <rect id="Mask-2" data-name="Mask" class="cls-1" width="151" height="13" rx="6.5"/>
    </clipPath>
    <clipPath id="clip-path-2">
      <rect id="Shadow" class="cls-2" width="151" height="13" rx="6.5"/>
    </clipPath>
    <filter id="Sensor" x="426.5" y="49" width="20" height="21" filterUnits="userSpaceOnUse">
      <feOffset dy="1" input="SourceAlpha"/>
      <feGaussianBlur result="blur-9"/>
      <feFlood flood-color="#fff"/>
      <feComposite operator="in" in2="blur-9"/>
      <feComposite in="SourceGraphic"/>
    </filter>
    <radialGradient id="radial-gradient-2" cx="1.211" cy="1.341" r="1.007" gradientUnits="objectBoundingBox">
      <stop offset="0" stop-color="#434343"/>
      <stop offset="1" stop-color="#161616"/>
    </radialGradient>
    <filter id="Mask-3" x="288" y="104.5" width="24" height="24" filterUnits="userSpaceOnUse">
      <feOffset input="SourceAlpha"/>
      <feGaussianBlur stdDeviation="1.5" result="blur-10"/>
      <feFlood flood-opacity="0.4"/>
      <feComposite operator="in" in2="blur-10"/>
      <feComposite in="SourceGraphic"/>
    </filter>
    <clipPath id="clip-path-3">
      <g class="cls-39" transform="matrix(1, 0, 0, 1, 0, 0)">
        <circle id="Mask-4" data-name="Mask" class="cls-3" cx="7.5" cy="7.5" r="7.5" transform="translate(7 7)"/>
      </g>
    </clipPath>
    <filter id="Screen_Border" x="47" y="207.5" width="779" height="1363" filterUnits="userSpaceOnUse">
      <feOffset dy="3" input="SourceAlpha"/>
      <feGaussianBlur stdDeviation="3" result="blur-11"/>
      <feFlood flood-color="#fff"/>
      <feComposite operator="in" in2="blur-11"/>
      <feComposite in="SourceGraphic"/>
    </filter>
  </defs>
  <g id="Apple_iPhone_8_Silver" data-name="Apple iPhone 8 Silver" transform="translate(0.5)">
    <g id="Shadow-2" data-name="Shadow" transform="translate(60 1764)">
      <path id="Outer_Shadow" data-name="Outer Shadow" class="cls-4" d="M375.5,24.111c207.383,0,375.5-5.988,375.5-13.376S520.732,0,375.5,0,0,3.349,0,10.736,168.117,24.111,375.5,24.111Z"/>
      <g class="cls-38" transform="matrix(1, 0, 0, 1, -60.5, -1764)">
        <path id="Middle_Shadow-2" data-name="Middle Shadow" class="cls-4" d="M362.983,19.289c200.47,0,362.983-4.791,362.983-10.7S503.374,0,362.983,0,0,2.679,0,8.589,162.513,19.289,362.983,19.289Z" transform="translate(72.92 1765.49)"/>
      </g>
      <g class="cls-37" transform="matrix(1, 0, 0, 1, -60.5, -1764)">
        <path id="Inner_Shadow-2" data-name="Inner Shadow" class="cls-4" d="M337.95,9.645c186.645,0,337.95-2.4,337.95-5.35S468.658,0,337.95,0,0,1.339,0,4.294,151.305,9.645,337.95,9.645Z" transform="translate(98.55 1769.17)"/>
      </g>
    </g>
    <g id="Device">
      <g id="Body">
        <g id="Phone_Shape" data-name="Phone Shape">
          <path id="Phone_Shape-2" data-name="Phone Shape" class="cls-5" d="M862,512.9V1627c0,49.577-14.154,149-151,149H150C14.748,1776,0,1677.129,0,1627V674.9a6.966,6.966,0,0,0,2-4.892V379.994A6.968,6.968,0,0,0,0,375.1V149C0,61.467,45.008,0,150,0H714c68.8,0,148,29.789,148,149V375.1a6.966,6.966,0,0,0-2,4.891V508.007A6.968,6.968,0,0,0,862,512.9Z" transform="translate(5)"/>
          <path id="Phone_Shape-3" data-name="Phone Shape" class="cls-6" d="M862,512.9V1627c0,49.577-14.154,149-151,149H150C14.748,1776,0,1677.129,0,1627V674.9a6.966,6.966,0,0,0,2-4.892V379.994A6.968,6.968,0,0,0,0,375.1V149C0,61.467,45.008,0,150,0H714c68.8,0,148,29.789,148,149V375.1a6.966,6.966,0,0,0-2,4.891V508.007A6.968,6.968,0,0,0,862,512.9Z" transform="translate(5)"/>
        </g>
        <g class="cls-36" transform="matrix(1, 0, 0, 1, -0.5, 0)">
          <path id="Glass-2" data-name="Glass" class="cls-7" d="M830,133c0-50.771-15.018-85.322-42.1-106.63C765.224,8.522,733.921,0,698,0H134C87.4,0,53.394,12.773,31.364,36.55,10.63,58.928,0,91.71,0,133V1611c0,32.22,6.232,61.312,21.606,84.442C42.2,1726.422,77.873,1744,134,1744H695c56.817,0,92.818-17.668,113.493-48.767C823.854,1672.127,830,1643.23,830,1611Z" transform="translate(21.5 16)"/>
        </g>
        <g id="Gloss" transform="translate(26 27)">
          <path id="Gloss_Right" data-name="Gloss Right" class="cls-8" d="M.663,1720.965v0A106.878,106.878,0,0,0,13.79,1714.3a96.237,96.237,0,0,0,11.587-8.162,92.725,92.725,0,0,0,10.064-9.643,96.093,96.093,0,0,0,8.574-11.115,108.921,108.921,0,0,0,9.226-17.181,129.393,129.393,0,0,0,6.5-19.462,164.829,164.829,0,0,0,3.846-21.74,218.477,218.477,0,0,0,1.266-24.014V118.169a208.671,208.671,0,0,0-2.572-33.754,140.613,140.613,0,0,0-7.667-28.5,104.777,104.777,0,0,0-12.69-23.362A93.772,93.772,0,0,0,24.284,14.206,105.093,105.093,0,0,0,0,0C14.772,4.29,27.653,10.7,38.284,19.059A93.462,93.462,0,0,1,55.925,37.3a103.977,103.977,0,0,1,12.69,23.229,139.147,139.147,0,0,1,7.667,28.334,206.328,206.328,0,0,1,2.572,33.561v1476.3a215.968,215.968,0,0,1-1.266,23.876,163.1,163.1,0,0,1-3.846,21.615,128.134,128.134,0,0,1-6.5,19.351,108.074,108.074,0,0,1-9.226,17.082,94.958,94.958,0,0,1-10.835,13.467,93.131,93.131,0,0,1-13.131,11.222,101.906,101.906,0,0,1-15.49,8.957A122.407,122.407,0,0,1,.663,1720.965Z" transform="translate(741.147 0.425)"/>
          <path id="Gloss_Left" data-name="Gloss Left" class="cls-8" d="M-.663,1720.965v0A106.878,106.878,0,0,1-13.79,1714.3a96.237,96.237,0,0,1-11.587-8.162,92.725,92.725,0,0,1-10.064-9.643,96.093,96.093,0,0,1-8.574-11.115,108.921,108.921,0,0,1-9.226-17.181,129.393,129.393,0,0,1-6.5-19.462,164.829,164.829,0,0,1-3.846-21.74,218.477,218.477,0,0,1-1.266-24.014V118.169a208.671,208.671,0,0,1,2.572-33.754,140.613,140.613,0,0,1,7.667-28.5,104.777,104.777,0,0,1,12.69-23.362A93.772,93.772,0,0,1-24.284,14.206,105.093,105.093,0,0,1,0,0C-14.772,4.29-27.653,10.7-38.284,19.059A93.462,93.462,0,0,0-55.925,37.3a103.977,103.977,0,0,0-12.69,23.229,139.147,139.147,0,0,0-7.667,28.334,206.328,206.328,0,0,0-2.572,33.561v1476.3a215.968,215.968,0,0,0,1.266,23.876,163.1,163.1,0,0,0,3.846,21.615,128.134,128.134,0,0,0,6.5,19.351,108.074,108.074,0,0,0,9.226,17.082,94.958,94.958,0,0,0,10.835,13.467,93.131,93.131,0,0,0,13.131,11.222,101.906,101.906,0,0,0,15.49,8.957A122.407,122.407,0,0,0-.663,1720.965Z" transform="translate(78.853 0.425)"/>
        </g>
        <g id="Antenna" transform="translate(5 140)">
          <path id="Top_Left" data-name="Top Left" class="cls-9" d="M0,2S5.212,0,16,0V25c-10.472.889-16,3-16,3Z"/>
          <path id="Top_Right" data-name="Top Right" class="cls-10" d="M0,2S-5.212,0-16,0V25c10.472.889,16,3,16,3Z" transform="translate(862)"/>
          <path id="Bottom_Left" data-name="Bottom Left" class="cls-9" d="M0-2S5.212,0,16,0V-26c-11.374.4-16-1-16-1Z" transform="translate(0 1497)"/>
          <path id="Bottom_Right" data-name="Bottom Right" class="cls-9" d="M0,2S5.212,0,16,0V26C4.626,25.6,0,27,0,27Z" transform="translate(862 1497) rotate(-180)"/>
        </g>
        <g id="Plug" transform="translate(377 1772)">
          <path id="Lightning_Connector" data-name="Lightning Connector" class="cls-11" d="M9.068,0H109.105C113.385,0,118,4,118,4H0S5.1-.042,9.068,0Z" transform="translate(0 0)"/>
        </g>
        <g id="Silent_Button" data-name="Silent Button" transform="translate(0 227)">
          <g class="cls-35" transform="matrix(1, 0, 0, 1, -0.5, -227)">
            <path id="Rectangle_165-5" data-name="Rectangle 165" class="cls-12" d="M3,0H7A0,0,0,0,1,7,0V70a0,0,0,0,1,0,0H3a3,3,0,0,1-3-3V3A3,3,0,0,1,3,0Z" transform="translate(0.5 227)"/>
          </g>
          <rect id="Rectangle_166" data-name="Rectangle 166" class="cls-13" width="2" height="70" rx="1" transform="translate(1)"/>
        </g>
        <g id="Volume_Up_Button" data-name="Volume Up Button" transform="translate(1 379)">
          <g class="cls-34" transform="matrix(1, 0, 0, 1, -1.5, -379)">
            <path id="Rectangle_165-6" data-name="Rectangle 165" class="cls-14" d="M3,0H7A0,0,0,0,1,7,0V131a0,0,0,0,1,0,0H3a3,3,0,0,1-3-3V3A3,3,0,0,1,3,0Z" transform="translate(1.5 379)"/>
          </g>
          <rect id="Rectangle_166-2" data-name="Rectangle 166" class="cls-15" width="2" height="130" rx="1" transform="translate(1)"/>
        </g>
        <g id="Volume_Down_Button" data-name="Volume Down Button" transform="translate(1 540)">
          <g class="cls-33" transform="matrix(1, 0, 0, 1, -1.5, -540)">
            <path id="Rectangle_165-7" data-name="Rectangle 165" class="cls-14" d="M3,0H7A0,0,0,0,1,7,0V131a1,1,0,0,1-1,1H3a3,3,0,0,1-3-3V3A3,3,0,0,1,3,0Z" transform="translate(1.5 540)"/>
          </g>
          <rect id="Rectangle_166-3" data-name="Rectangle 166" class="cls-15" width="2" height="130" rx="1" transform="translate(1 1)"/>
        </g>
        <g id="Sleep_Button" data-name="Sleep Button" transform="translate(871 378)">
          <g class="cls-32" transform="matrix(1, 0, 0, 1, -871.5, -378)">
            <path id="Rectangle_165-8" data-name="Rectangle 165" class="cls-14" d="M0,3.065A3,3,0,0,0-3.424.1l-1,.143A3,3,0,0,0-7,3.208V128a3,3,0,0,0,2.576,2.97l1,.143A3,3,0,0,0,0,128.147Z" transform="translate(871.5 378.39)"/>
          </g>
          <rect id="Rectangle_166-4" data-name="Rectangle 166" class="cls-15" width="2" height="130" rx="1" transform="translate(-3 1)"/>
        </g>
      </g>
      <g id="Front" transform="translate(56 49)">
        <path id="Home_Button" data-name="Home Button" class="cls-16" d="M0,68a68,68,0,1,1,68,68A68,68,0,0,1,0,68Z" transform="translate(312 1535)"/>
        <g id="Speaker" class="cls-17" transform="translate(305 61)">
          <rect id="Mask-5" data-name="Mask" class="cls-1" width="151" height="13" rx="6.5"/>
          <g id="Speaker-2" data-name="Speaker" class="cls-18">
            <path id="Grid" class="cls-19" d="M0,12.072v-.929H154.331v.929ZM0,9.285V8.357H154.331v.928ZM0,6.5V5.571H154.331V6.5ZM0,3.714V2.786H154.331v.929ZM0,.929V0H154.331V.929Z" transform="translate(-2.221)"/>
            <path id="Grid-2" data-name="Grid" class="cls-19" d="M146.559,15.786V0h1.111V15.786Zm-3.331,0V0h1.111V15.786Zm-3.331,0V0h1.111V15.786Zm-3.331,0V0h1.111V15.786Zm-3.331,0V0h1.111V15.786Zm-3.331,0V0h1.111V15.786Zm-3.331,0V0h1.111V15.786Zm-3.331,0V0h1.111V15.786Zm-3.331,0V0h1.111V15.786Zm-3.331,0V0h1.111V15.786Zm-3.331,0V0h1.111V15.786Zm-3.331,0V0h1.111V15.786Zm-3.331,0V0H107.7V15.786Zm-3.331,0V0h1.111V15.786Zm-3.331,0V0h1.111V15.786Zm-3.331,0V0h1.111V15.786Zm-3.331,0V0h1.111V15.786Zm-3.331,0V0h1.111V15.786Zm-3.331,0V0h1.111V15.786Zm-3.33,0V0h1.11V15.786Zm-3.331,0V0h1.11V15.786Zm-3.331,0V0h1.11V15.786Zm-3.331,0V0h1.11V15.786Zm-3.331,0V0h1.11V15.786Zm-3.331,0V0h1.11V15.786Zm-3.331,0V0H64.4V15.786Zm-3.331,0V0h1.11V15.786Zm-3.331,0V0h1.11V15.786Zm-3.331,0V0H54.4V15.786Zm-3.331,0V0h1.11V15.786Zm-3.331,0V0h1.11V15.786Zm-3.331,0V0h1.11V15.786Zm-3.331,0V0h1.11V15.786Zm-3.331,0V0h1.11V15.786Zm-3.331,0V0h1.11V15.786Zm-3.331,0V0h1.11V15.786Zm-3.331,0V0h1.111V15.786Zm-3.331,0V0h1.111V15.786Zm-3.331,0V0H21.1V15.786Zm-3.331,0V0h1.111V15.786Zm-3.331,0V0h1.111V15.786Zm-3.331,0V0H11.1V15.786Zm-3.331,0V0H7.772V15.786Zm-3.331,0V0H4.442V15.786ZM0,15.786V0H1.111V15.786Z" transform="translate(1.11 -0.929)"/>
          </g>
          <rect id="Shadow-3" data-name="Shadow" class="cls-2" width="151" height="13" rx="6.5"/>
        </g>
        <g class="cls-31" transform="matrix(1, 0, 0, 1, -56.5, -49)">
          <circle id="Sensor-2" data-name="Sensor" class="cls-21" cx="10" cy="10" r="10" transform="translate(426.5 49)"/>
        </g>
        <g id="Camera" transform="translate(229 53)">
          <circle id="Oval_57" data-name="Oval 57" class="cls-22" cx="14.5" cy="14.5" r="14.5"/>
          <g class="cls-30" transform="matrix(1, 0, 0, 1, -285.5, -102)">
            <circle id="Mask-6" data-name="Mask" class="cls-3" cx="7.5" cy="7.5" r="7.5" transform="translate(292.5 109)"/>
          </g>
          <g id="Camera-2" data-name="Camera" class="cls-23">
            <circle id="Oval_59" data-name="Oval 59" class="cls-24" cx="1" cy="1" r="1" transform="translate(9 16)"/>
            <circle id="Oval_59-2" data-name="Oval 59" class="cls-24" cx="1" cy="1" r="1" transform="translate(9 16)"/>
            <circle id="Oval_59-3" data-name="Oval 59" class="cls-25" cx="1.5" cy="1.5" r="1.5" transform="translate(20 9)"/>
            <circle id="Oval_59-4" data-name="Oval 59" class="cls-25" cx="1.5" cy="1.5" r="1.5" transform="translate(20 9)"/>
            <ellipse id="Oval_61" data-name="Oval 61" class="cls-26" cx="3.5" cy="1.5" rx="3.5" ry="1.5" transform="matrix(0.875, -0.485, 0.485, 0.875, 8.712, 10.885)"/>
            <circle id="Oval_61-2" data-name="Oval 61" class="cls-27" cx="3.5" cy="3.5" r="3.5" transform="translate(11.171 12.1) rotate(-16)"/>
          </g>
        </g>
        <g class="cls-29" transform="matrix(1, 0, 0, 1, -56.5, -49)">
          <path id="Screen_Border-2" data-name="Screen Border" class="cls-28" d="M5,0H755a5,5,0,0,1,5,5V1339a5,5,0,0,1-5,5H5a5,5,0,0,1-5-5V5A5,5,0,0,1,5,0Z" transform="translate(56.5 214)"/>
        </g>
      </g>
    </g>
  </g>
</svg>
