<svg xmlns="http://www.w3.org/2000/svg" width="90.888" height="40.925" viewBox="0 0 90.888 40.925">
  <g id="_50" data-name="50" transform="translate(0 0)">
    <path id="Fill_149" data-name="Fill 149" d="M15.821,31.345a35.271,35.271,0,0,1-6.938-.652C6.106,30.143,3.209,29.416.974,27.16A2.812,2.812,0,0,1,0,25.08a.8.8,0,0,1,.492-.807.586.586,0,0,1,.225-.055c.168,0,.241.125.333.284.032.056.066.114.107.171,1.226,1.726,3.134,2.1,4.979,2.464.2.039.4.078.6.119a33.48,33.48,0,0,0,6.83.664,58.321,58.321,0,0,0,10.094-1.014A60.968,60.968,0,0,0,36.2,23.333c.057-.023.118-.042.177-.061.164-.051.318-.1.377-.228a.555.555,0,0,0-.058-.439,8.254,8.254,0,0,1-.023-6.379,12.859,12.859,0,0,1,2.417-4.283,8.6,8.6,0,0,1,4.168-2.6A4.561,4.561,0,0,1,44.5,9.149a3.574,3.574,0,0,1,3,1.869,7.622,7.622,0,0,1,1.29,6.108,9.24,9.24,0,0,1-3.23,5.018l-.389.319-.473.388c.023.094.048.187.072.28.134.007.277.01.424.01a17.33,17.33,0,0,0,4.275-.724l.436-.112c6.577-1.671,12.788-5.163,18.986-10.676A111.031,111.031,0,0,0,79.214.945l.058-.067a2.384,2.384,0,0,1,.97-.789A1.327,1.327,0,0,1,80.656,0a.268.268,0,0,1,.234.1c.069.1.06.275-.029.526a.646.646,0,0,1-.067.125c-.042.067-.082.13-.062.185s.066.076.155.1c1.009.311.816,1.014.629,1.695l-.036.132a9.09,9.09,0,0,1-1.6,2.908c-.139.192-.281.388-.416.582A67.467,67.467,0,0,1,72.41,15.1a60.4,60.4,0,0,1-8.07,6.6,19.136,19.136,0,0,1-5.791,3.15,11.331,11.331,0,0,0-2.018.837,11.5,11.5,0,0,1-1.916.805,36.751,36.751,0,0,1-8.047,1.627c-.245.014-.492.021-.733.021a11.264,11.264,0,0,1-5.666-1.477,2.124,2.124,0,0,0-1.073-.309,2.219,2.219,0,0,0-.854.182c-1.577.649-3.294,1.3-5.4,2.062a47.986,47.986,0,0,1-9.131,2.1A53.274,53.274,0,0,1,15.821,31.345ZM36.977,23.9h0L30.1,26.37A21.625,21.625,0,0,0,36.977,23.9Zm15.972-1.19h0c-.524.122-1.055.25-1.568.374a57.775,57.775,0,0,1-6.623,1.322c.309.025.633.039.962.039a19.6,19.6,0,0,0,7.229-1.735Zm-7.52-9.347h0a3.764,3.764,0,0,0-.527.053l-.057.008c-2.189.314-3.324,2.051-4.325,3.584a7.5,7.5,0,0,0-1.429,3.959.947.947,0,0,0,.163.67.325.325,0,0,0,.24.094,1.031,1.031,0,0,0,.469-.154,13.98,13.98,0,0,0,5.071-4.339,6.278,6.278,0,0,0,1.135-2.961,1,1,0,0,0-.208-.736.7.7,0,0,0-.531-.177Z" transform="translate(0 9.58)" fill="#aeaeae"/>
    <path id="Fill_151" data-name="Fill 151" d="M20.636,17.978a1.077,1.077,0,0,1-.565-.229c-1.4-.955-1.517-1.29-1.439-3.985a40.709,40.709,0,0,1,.656-5.657c.069-.42.14-.852.206-1.278a2.15,2.15,0,0,1,.053-.229c.074-.274.151-.556-.187-.791a.6.6,0,0,0-.351-.121,1.056,1.056,0,0,0-.569.246l-.1.066a18.01,18.01,0,0,1-3.575,1.664c-.452.171-.919.348-1.374.536-.485.2-.963.449-1.426.69a16.274,16.274,0,0,1-1.708.8c-1.56.59-3.1,1.3-4.6,1.989l-.382.176a5.84,5.84,0,0,1-.915.3,3.336,3.336,0,0,0-1.62.786,1.2,1.2,0,0,1-.841.41c-.476,0-.972-.361-1.517-1.1a1.365,1.365,0,0,1,.131-2A12.1,12.1,0,0,1,2.522,9C5.032,7.781,7.588,6.55,10.059,5.36l.008,0C12.19,4.334,14.385,3.277,16.54,2.23c.816-.4,1.624-.842,2.406-1.273l.681-.374A3.739,3.739,0,0,1,21.34,0c.733,0,1.274.483,1.928,1.722a5.359,5.359,0,0,1,.314,4.461,50.4,50.4,0,0,0-2.33,9.169c-.048.365-.067.74-.086,1.1-.013.264-.027.537-.052.8C21.07,17.736,20.909,17.978,20.636,17.978ZM20.192,1.442,17.133,2.97l-.127.064L14.074,4.5A20.071,20.071,0,0,0,20.192,1.442Z" transform="translate(66.966 0)" fill="#aeaeae"/>
  </g>
</svg>
