<svg xmlns="http://www.w3.org/2000/svg" viewBox="0 0 500 500"><g id="freepik--background-simple--inject-506"><path d="M353.81,392.92c22.75-8.54,44.82-29.84,58.86-49.68,38.23-54,48.42-96,44.71-149.49-2.19-31.72-14.93-62.84-38.15-84.56C399.59,90.82,369.88,85,343.92,92s-47.9,26-61.15,49.38c-10.87,19.2-17.69,42.86-36.9,53.7-16,9-36,6.2-53.3.34s-34-14.53-52.17-16.77c-40.18-5-79.88,25.6-91.05,64.51s3.33,82.45,31.29,111.74c16.6,17.39,37.32,30.15,59.81,38.83a196.55,196.55,0,0,0,66.9,12.82c36,.72,113.33.44,146.46-13.63" style="fill:#ebebeb"></path></g><g id="freepik--Character--inject-506"><path d="M227.19,240.35a55.25,55.25,0,0,1-3.57-10.24,18.48,18.48,0,0,1,.63-10.7,11.2,11.2,0,0,1,7.83-6.89c2.19-.43,4.54-.07,6.64-.84,2.43-.9,4.05-3.13,5.94-4.9a18.92,18.92,0,0,1,10.85-4.94,11.22,11.22,0,0,1,6.22.9,6.31,6.31,0,0,1,3.57,4.93,30,30,0,0,1,7.6-1.83,10.07,10.07,0,0,1,7.32,2.17,6.14,6.14,0,0,1,1.69,7.08,5,5,0,0,1,6.44,1.82,6.45,6.45,0,0,1-.41,7,12,12,0,0,1-7.19,4.13c-2.44.34-5.28.57-7.61-.21" style="fill:#263238"></path><path d="M233.16,310.8l35-2.8c.22-4.09-.07-19.9-.07-19.9s14.56-2.27,14.74-16.83-2.34-48-2.34-48h0a50.61,50.61,0,0,0-50.86,6.39l-2.16,1.66Z" style="fill:#b78876"></path><path d="M268.12,287.89a33.86,33.86,0,0,1-19-5.4s4.49,10.48,19,9.17Z" style="fill:#aa6550"></path><path d="M229.27,246.41c-.24-.11-10-3-9.68,7s10.24,7.59,10.25,7.3S229.27,246.41,229.27,246.41Z" style="fill:#b78876"></path><path d="M226.68,257s-.17.12-.46.27a1.72,1.72,0,0,1-1.29.06c-1.07-.35-2-2-2.11-3.78a5.75,5.75,0,0,1,.4-2.5,2,2,0,0,1,1.27-1.37.89.89,0,0,1,1,.44c.14.27.08.47.13.49s.21-.18.12-.58a1.14,1.14,0,0,0-.41-.62,1.36,1.36,0,0,0-1-.22,2.45,2.45,0,0,0-1.76,1.6,5.8,5.8,0,0,0-.51,2.8c.12,2,1.21,3.85,2.66,4.22a1.84,1.84,0,0,0,1.58-.32C226.67,257.27,226.72,257,226.68,257Z" style="fill:#aa6550"></path><path d="M275.72,245.84a2.08,2.08,0,0,1-2,2.09,2,2,0,0,1-2.15-1.87,2.08,2.08,0,0,1,2-2.1A2,2,0,0,1,275.72,245.84Z" style="fill:#263238"></path><path d="M277.74,243.75c-.26.28-1.83-.89-4.07-.88s-3.88,1.12-4.12.85.14-.61.86-1.14a5.72,5.72,0,0,1,3.3-1,5.56,5.56,0,0,1,3.24,1C277.63,243.14,277.87,243.63,277.74,243.75Z" style="fill:#263238"></path><path d="M253.72,245.84a2.08,2.08,0,0,1-2,2.09,2,2,0,0,1-2.15-1.87,2.08,2.08,0,0,1,2-2.1A2,2,0,0,1,253.72,245.84Z" style="fill:#263238"></path><path d="M255.74,244.17c-.26.27-1.83-.89-4.07-.89s-3.88,1.13-4.12.85c-.12-.12.14-.61.86-1.13a5.65,5.65,0,0,1,3.3-1,5.49,5.49,0,0,1,3.24,1C255.63,243.56,255.87,244.05,255.74,244.17Z" style="fill:#263238"></path><path d="M263.86,260.77a14.62,14.62,0,0,1,3.64-.66c.57-.06,1.11-.17,1.21-.56a3,3,0,0,0-.38-1.69l-1.69-4.36c-2.35-6.19-4.05-11.29-3.8-11.38s2.36,4.86,4.7,11q.85,2.29,1.62,4.38a3.29,3.29,0,0,1,.3,2.24,1.44,1.44,0,0,1-.94.84,3.66,3.66,0,0,1-1,.13A14.18,14.18,0,0,1,263.86,260.77Z" style="fill:#263238"></path><path d="M257.28,262.32c.36,0,.37,2.4,2.45,4.13s4.66,1.46,4.68,1.8c0,.15-.58.47-1.67.5a6.07,6.07,0,0,1-3.91-1.37,5.27,5.27,0,0,1-1.9-3.46C256.84,262.9,257.11,262.3,257.28,262.32Z" style="fill:#263238"></path><path d="M276.92,239.82c-.4.5-1.94,0-3.79,0s-3.43.34-3.79-.19c-.16-.26.09-.77.78-1.25a5.49,5.49,0,0,1,6.1.19C276.88,239,277.09,239.57,276.92,239.82Z" style="fill:#263238"></path><path d="M252.83,236.08c-.25.28-.82.16-1.57,0a13.85,13.85,0,0,0-5.54-.18c-.76.09-1.34.17-1.57-.12s0-.91.78-1.55a5.89,5.89,0,0,1,7.23.24C252.89,235.18,253.07,235.83,252.83,236.08Z" style="fill:#263238"></path><path d="M281.22,227.74A34.17,34.17,0,0,1,260,226.66c-7.55-2.86-16.1-3.76-17.8-2.13s-1.34,9.07-8.24,11.95c0,0,1.92,14.07-3.76,14.13s-4.37-22.16-4.37-22.16l13.09-8.12L253.64,216l14.08-1.42,13.5,2.7Z" style="fill:#263238"></path><path d="M318.83,344.27s25.36,26.11,34.3,22.23C377.44,356,397.2,333.76,404,325.79c.29-1.5.58-3.26.83-5.36a16,16,0,0,0-.3-5.43,24.72,24.72,0,0,0-2.14-6.46c-1.11-1.79.49-3.94,2.24-3.21s6,5.46,6.89,12.12a2.73,2.73,0,0,0,3.78,1.73c4.4-1.45,19.35-7.25,22-7.87,2.37-.55,5.2-.41,3.62,1.32s-12.6,8.18-12.6,8.18,14.28-8.74,15.46-6.6c.81,1.48-2.2,4.88-12.22,9.72,0,0,11.82-7.11,13.84-6.88,4.54.53-9.6,9.23-9.6,9.23,10-6,9.49-6.41,10.57-5.24.81.87-.94,2.86-5.85,6.86-4,3.25-7.46,7.41-13.26,12.68h0s-60,83.45-97.75,57.84c-20.35-13.81-25.94-20.77-37.49-31.23" style="fill:#b78876"></path><path d="M429.88,330c.15.25,3.28-1.46,7-3.83s6.6-4.49,6.43-4.73-3.3,1.48-7,3.84S429.74,329.78,429.88,330Z" style="fill:#aa6550"></path><path d="M427.17,326.45c.14.25,3.59-1.39,7.69-3.67s7.31-4.33,7.17-4.59-3.58,1.39-7.69,3.67S427,326.19,427.17,326.45Z" style="fill:#aa6550"></path><path d="M424.38,322.71c.14.26,3.42-1.24,7.33-3.34s7-4,6.83-4.28-3.42,1.24-7.33,3.34S424.24,322.45,424.38,322.71Z" style="fill:#aa6550"></path><path d="M168.69,365s-12.78,34.08-22.52,34.11c-26.5.08-53.49-12.35-62.91-16.93-.86-1.26-1.84-2.76-2.91-4.58a16.22,16.22,0,0,1-1.9-5.09,25.28,25.28,0,0,1-.62-6.78c.3-2.08-2-3.42-3.34-2s-3.32,7.41-1.46,13.87a2.73,2.73,0,0,1-2.77,3.1c-4.61.43-20.63,1.1-23.32,1.6-2.39.45-4.93,1.71-2.79,2.66,1.56.69,8.68,1.67,12.46,2.15-4.59-.52-14.28-1.41-14.44.44-.1,1.09,1.6,2.27,5.79,3.08-2.86-.19-5.44-.23-6.13.18-4,2.3,12.49,4.6,12.49,4.6-11.54-1.51-11.27-2.06-11.79-.56-.39,1.12,2,2.25,8.11,4,5,1.38,9.8,3.79,17.23,6.3,0,0,88.42,52.42,112.73,13.84,13.11-20.8,15.45-29.42,21.84-43.64Z" style="fill:#b78876"></path><path d="M61.24,396.41c0,.29-3.59,0-8-.71s-7.84-1.46-7.78-1.75,3.62,0,8,.71S61.27,396.12,61.24,396.41Z" style="fill:#aa6550"></path><path d="M62.29,392c0,.29-3.84.17-8.51-.27s-8.44-1-8.41-1.34,3.83-.16,8.51.28S62.31,391.75,62.29,392Z" style="fill:#aa6550"></path><path d="M63.35,387.5c0,.29-3.63.24-8.06-.13s-8-.89-8-1.18,3.63-.23,8.06.13S63.37,387.21,63.35,387.5Z" style="fill:#aa6550"></path><path d="M348.75,366.58,306.92,319.9c-11.65-11.45-17.87-14.87-34.08-16.79-2.65-.31-4.76-.51-6.27-.7a61.92,61.92,0,0,1-37.33,0h0c-5.77.24-10.55,2-15.45,3-15.46,3-26.58,14.22-29.67,24.61h0l-34.87,68.11,29.45,24.75,26.9-42.7,1.64,45.45-1.67,34,103.25.3-4.69-79.73,27.79,22.62Z" style="fill:#5B5858"></path><path d="M206.07,351.57a6.42,6.42,0,0,1,.13,1.52c0,1,.07,2.38.1,4.13,0,3.48.07,8.3,0,13.62s-.09,10.14-.17,13.62c0,1.75-.09,3.16-.13,4.13a6.11,6.11,0,0,1-.15,1.51,6,6,0,0,1-.14-1.51c0-1-.07-2.39-.1-4.13-.05-3.49-.07-8.3,0-13.63s.09-10.13.17-13.62c0-1.74.09-3.15.14-4.13A5.64,5.64,0,0,1,206.07,351.57Z" style="fill:#263238"></path><path d="M305.88,410a15.4,15.4,0,0,1-.3-2.34c-.15-1.64-.34-3.8-.58-6.4-.45-5.41-1-12.89-1.6-21.15S302.32,364.41,302,359c-.13-2.61-.25-4.78-.33-6.42a14.2,14.2,0,0,1,0-2.36,14.45,14.45,0,0,1,.31,2.34c.15,1.64.34,3.8.57,6.4.45,5.41,1,12.89,1.61,21.15s1.07,15.74,1.39,21.16c.14,2.61.25,4.78.34,6.42A14.77,14.77,0,0,1,305.88,410Z" style="fill:#263238"></path><g style="opacity:0.30000000000000004"><path d="M321.19,335.61c0,.14-31.33.26-70,.26s-70-.12-70-.26,31.33-.26,70-.26S321.19,335.46,321.19,335.61Z" style="fill:#ebebeb"></path></g><g style="opacity:0.30000000000000004"><path d="M332,377.09c0,.15-38.18.26-85.26.26s-85.27-.11-85.27-.26,38.17-.26,85.27-.26S332,377,332,377.09Z" style="fill:#ebebeb"></path></g><g style="opacity:0.30000000000000004"><path d="M306.72,424.39c0,.15-22.17.26-49.52.26s-49.52-.11-49.52-.26,22.17-.26,49.52-.26S306.72,424.25,306.72,424.39Z" style="fill:#ebebeb"></path></g><g style="opacity:0.30000000000000004"><path d="M218.76,459.82c-.14,0-.26-34.84-.26-77.8s.12-77.82.26-77.82S219,339,219,382,218.91,459.82,218.76,459.82Z" style="fill:#ebebeb"></path></g><g style="opacity:0.30000000000000004"><path d="M278.6,459.83s0-.14,0-.4,0-.69,0-1.19c0-1.06,0-2.59-.05-4.54,0-4-.08-9.69-.13-16.72-.13-14.15-.31-33.64-.5-55.17s-.33-41.06-.34-55.18c0-7,0-12.74,0-16.72,0-2,0-3.48.05-4.54,0-.5,0-.9,0-1.19a2.12,2.12,0,0,1,0-.4s0,.14,0,.4,0,.69,0,1.19c0,1.06,0,2.59.05,4.54,0,4,.08,9.68.13,16.72.13,14.14.31,33.64.5,55.18s.33,41,.34,55.16c0,7,0,12.75,0,16.73,0,1.95,0,3.48,0,4.54,0,.5,0,.89,0,1.19A2.12,2.12,0,0,1,278.6,459.83Z" style="fill:#ebebeb"></path></g><g style="opacity:0.30000000000000004"><path d="M320.93,393.32c-.14,0-.26-12.6-.26-28.14s.12-28.14.26-28.14.26,12.59.26,28.14S321.08,393.32,320.93,393.32Z" style="fill:#ebebeb"></path></g><g style="opacity:0.30000000000000004"><path d="M171.92,404.85c-.15,0-.26-11.88-.26-26.54s.11-26.55.26-26.55.26,11.88.26,26.55S172.06,404.85,171.92,404.85Z" style="fill:#ebebeb"></path></g><polyline points="225.38 303.78 231.08 291.8 249.75 304.96 268.17 292.58 274.65 303.1 256.19 315.1 243.85 315.1 225.38 305.17" style="fill:#5B5858"></polyline><path d="M249.75,305a1.39,1.39,0,0,1-.35.1,3.72,3.72,0,0,0-1,.27,5.87,5.87,0,0,0-2.78,2.35,29.83,29.83,0,0,0-2.57,5c-.44,1-.88,2-1.44,3.07a11.48,11.48,0,0,1-2.15,3l-.18.17-.18-.19-1.06-1.1c-3.7-3.88-6.85-7.57-9-10.31-1.1-1.37-2-2.49-2.54-3.28a7.63,7.63,0,0,1-.86-1.26,7.69,7.69,0,0,1,1,1.13l2.66,3.18c2.26,2.67,5.45,6.32,9.13,10.18l1.06,1.1h-.36a10.66,10.66,0,0,0,2.06-2.87c.55-1,1-2.05,1.45-3a28.48,28.48,0,0,1,2.71-5,5.88,5.88,0,0,1,3-2.33,3.35,3.35,0,0,1,1-.18C249.62,304.94,249.75,304.94,249.75,305Z" style="fill:#263238"></path><path d="M274.32,303.33a7,7,0,0,1-.91,1.2c-.63.75-1.55,1.81-2.75,3.06a74.31,74.31,0,0,1-10.29,8.84c-.81.57-1.62,1.12-2.4,1.63l-.36.23,0-.44a23.5,23.5,0,0,0-1.52-6.14,15.74,15.74,0,0,0-2.47-4.42,6.13,6.13,0,0,0-2.65-2c-.74-.25-1.19-.28-1.18-.33s.11,0,.32,0a3.56,3.56,0,0,1,.92.15,6.12,6.12,0,0,1,2.85,1.95,15.55,15.55,0,0,1,2.64,4.48,23.72,23.72,0,0,1,1.61,6.29l-.4-.2c.77-.52,1.57-1.06,2.38-1.63a83.05,83.05,0,0,0,10.32-8.67c1.24-1.21,2.2-2.23,2.87-2.93A8.82,8.82,0,0,1,274.32,303.33Z" style="fill:#263238"></path><path d="M256.85,459.83s0-.14,0-.4,0-.67,0-1.17c0-1.05,0-2.56-.06-4.49,0-3.93-.11-9.57-.2-16.53-.2-13.95-.65-33.22-1.62-54.49s-2.31-40.5-3.38-54.41c-.56-6.94-1-12.56-1.32-16.48-.15-1.92-.27-3.42-.36-4.47,0-.5-.06-.88-.07-1.17a1.74,1.74,0,0,1,0-.4s0,.13.06.39.07.68.13,1.17c.11,1.05.26,2.55.45,4.47.39,3.88.9,9.5,1.49,16.46,1.17,13.9,2.55,33.14,3.53,54.42s1.36,40.55,1.47,54.51c.06,7,.06,12.63,0,16.53,0,1.93,0,3.44,0,4.49,0,.5,0,.88,0,1.17A2.12,2.12,0,0,1,256.85,459.83Z" style="fill:#263238"></path><g style="opacity:0.2"><path d="M249.31,305c2.27,1.29,3.11,4.16,3.12,6.76s-.61,5.2-.39,7.8a4.43,4.43,0,0,0,1.74,3.53c1.58,1,3.59.06,5.21-.83,3.48-1.91,7-3.86,9.85-6.64a14.22,14.22,0,0,0,4-10.65c-4.8,5.15-9.64,8.26-14.89,12.32a21.74,21.74,0,0,0-2.64-7.79c-1.36-2.36-3.29-4.8-6-4.5"></path></g><g style="opacity:0.2"><path d="M232.16,310.92c1.77,3.47,3.63,7,6.68,9.47,1.35,1.07,3.33,1.88,4.74.88,1.13-.81,1.32-2.38,1.41-3.77.24-3.52,1.28-7.57,1.52-11.1-2.79,3.15-4.32,8.7-7.26,12.51-3-1.89-4.73-5.12-6.89-7.93"></path></g><g style="opacity:0.2"><path d="M323,395l13.93-25.91c-4.12.41-6.89,4.3-9,7.86s-4.7,7.51-8.79,8.22c-2.84.49-5.68-.78-8.16-2.26s-4.88-3.23-7.7-3.85Z"></path></g><g style="opacity:0.2"><path d="M200.63,388s-9.7,10.21-16.24,11.71a23.79,23.79,0,0,1-19.12-4,3.58,3.58,0,0,0-1.45-.77,1.09,1.09,0,0,0-1.27.78,1.58,1.58,0,0,0,.68,1.23q10,9.31,20.84,17.72Z"></path></g><g style="opacity:0.2"><path d="M246.31,318.4q-5.52,44.09-7.21,88.54c-.17,4.63-.29,9.4,1.36,13.73,1.92,5,6,8.9,10,12.56,1.69,1.56,4,3.24,6.06,2.27a5.65,5.65,0,0,0,1.95-1.82c2.5-3.22,4.84-6.7,5.77-10.68,2.9-12.46-8.86-24.79-6.21-37.31"></path></g><path d="M245.36,308.17l8.83-.23,2.36,4.75-2.83,7.94h-7.21l-3.82-7.11Z" style="fill:#455a64"></path><polygon points="246.51 320.63 242.38 421.69 254.38 434.74 265.47 418.98 253.72 320.63 246.51 320.63" style="fill:#455a64"></polygon><path d="M253.3,320.77a17.33,17.33,0,0,1-3.34,0,17.17,17.17,0,0,1-3.33-.11,12.19,12.19,0,0,1,6.67.11Z" style="fill:#263238"></path><path d="M255.2,309.65a6,6,0,0,1-1.12,1.53,24.69,24.69,0,0,1-3.32,3.14,25.09,25.09,0,0,1-3.81,2.5,5.67,5.67,0,0,1-1.75.74c-.07-.14,2.49-1.46,5.24-3.65S255.08,309.54,255.2,309.65Z" style="fill:#263238"></path><path d="M254.81,330.5a39.11,39.11,0,0,1-4.31,4.64,38.23,38.23,0,0,1-4.69,4.27,38.73,38.73,0,0,1,4.32-4.64A37.76,37.76,0,0,1,254.81,330.5Z" style="fill:#263238"></path><path d="M255.42,337.78a47.44,47.44,0,0,1-4.83,5.14,47,47,0,0,1-5.19,4.78,48,48,0,0,1,4.83-5.15A47.46,47.46,0,0,1,255.42,337.78Z" style="fill:#ebebeb"></path><path d="M256.56,344.5a64.3,64.3,0,0,1-5.62,5.94,65.38,65.38,0,0,1-6,5.58,63.61,63.61,0,0,1,5.62-5.95A62.7,62.7,0,0,1,256.56,344.5Z" style="fill:#263238"></path><path d="M257.35,351.58a79.14,79.14,0,0,1-6.13,6.46,78,78,0,0,1-6.49,6.08,75,75,0,0,1,6.12-6.45A76.34,76.34,0,0,1,257.35,351.58Z" style="fill:#ebebeb"></path><path d="M258.1,358.71a90.79,90.79,0,0,1-6.62,6.94,86.65,86.65,0,0,1-7,6.58,89.74,89.74,0,0,1,6.62-7A85.34,85.34,0,0,1,258.1,358.71Z" style="fill:#263238"></path><path d="M259,365.68c.11.1-3.16,3.51-7.28,7.62s-7.56,7.35-7.66,7.25a103.16,103.16,0,0,1,7.29-7.62C255.47,368.82,258.89,365.58,259,365.68Z" style="fill:#ebebeb"></path><path d="M259.75,372.8c.1.1-3.41,3.75-7.83,8.16s-8.09,7.88-8.19,7.78,3.4-3.75,7.82-8.15S259.64,372.7,259.75,372.8Z" style="fill:#263238"></path><path d="M260.63,379.8c.1.1-3.65,4-8.37,8.69s-8.63,8.42-8.73,8.32,3.64-4,8.37-8.69S260.52,379.7,260.63,379.8Z" style="fill:#ebebeb"></path><path d="M261.18,387.12c.1.1-3.88,4.23-8.89,9.21s-9.15,8.95-9.26,8.85,3.88-4.23,8.89-9.21S261.08,387,261.18,387.12Z" style="fill:#263238"></path><path d="M262.15,394c.1.1-4.1,4.45-9.38,9.71s-9.66,9.45-9.76,9.35,4.1-4.45,9.39-9.72S262.05,393.92,262.15,394Z" style="fill:#ebebeb"></path><path d="M263.68,400.36c.1.11-4.6,4.95-10.49,10.82s-10.76,10.56-10.86,10.46,4.59-4.95,10.49-10.83S263.58,400.26,263.68,400.36Z" style="fill:#263238"></path><path d="M246.14,425.78c-.1-.1,3.87-4.26,8.88-9.29s9.14-9,9.25-8.92-3.88,4.26-8.88,9.29S246.24,425.88,246.14,425.78Z" style="fill:#ebebeb"></path><path d="M250.73,430.38c-.1-.1,3-3.54,7-7.69a101.27,101.27,0,0,1,7.34-7.33,103.26,103.26,0,0,1-7,7.69A101.27,101.27,0,0,1,250.73,430.38Z" style="fill:#263238"></path><path d="M253.92,323.73a31,31,0,0,1-3.82,4.15,30.49,30.49,0,0,1-4.19,3.79,31.45,31.45,0,0,1,3.82-4.16A30.65,30.65,0,0,1,253.92,323.73Z" style="fill:#ebebeb"></path><path d="M150.12,397.91c-1.46-.13-2-2.11-1.54-3.5s1.57-2.51,2-3.91c.27-.79.39-1.74,1.08-2.22a2.17,2.17,0,0,1,2.5.11c4.07,3.48,7.07,6.87,11.51,10.64,4.28,3.62,8.89,8.27,13.41,11.6,2.54,1.88,5.65,3.82,6,7A5.07,5.07,0,0,1,180.6,423c-2.58.18-4.81-1.65-6.74-3.37q-12.08-10.78-24.17-21.55" style="fill:#5B5858"></path><path d="M183.46,414.25a9.06,9.06,0,0,1-1.24-.89c-.78-.6-1.93-1.42-3.37-2.44a49.05,49.05,0,0,1-4.85-3.84L168.41,402c-4-3.63-7.52-6.93-10.08-9.34l-3-2.88a7.51,7.51,0,0,1-1-1.1,8.65,8.65,0,0,1,1.19,1l3.13,2.75c2.62,2.34,6.21,5.6,10.17,9.22,2,1.82,3.84,3.54,5.55,5.12a53.75,53.75,0,0,0,4.76,3.9c1.41,1.06,2.53,1.94,3.28,2.58A7.6,7.6,0,0,1,183.46,414.25Z" style="fill:#263238"></path><path d="M180.8,416.58a7.8,7.8,0,0,1-1.3-.74c-.81-.5-2-1.26-3.39-2.22-2.84-1.92-6.69-4.69-10.77-8s-7.63-6.42-10.12-8.77c-1.25-1.17-2.25-2.14-2.91-2.83a7.57,7.57,0,0,1-1-1.1,9.92,9.92,0,0,1,1.15,1l3,2.7c2.56,2.28,6.13,5.37,10.2,8.64s7.88,6.07,10.66,8.06l3.29,2.35A8.89,8.89,0,0,1,180.8,416.58Z" style="fill:#263238"></path><g style="opacity:0.30000000000000004"><path d="M163,396.73a22.48,22.48,0,0,1-3.19,3.55,22.17,22.17,0,0,1-3.56,3.19,44.2,44.2,0,0,1,6.75-6.74Z" style="fill:#ebebeb"></path></g><g style="opacity:0.30000000000000004"><path d="M178.67,410.77a24.62,24.62,0,0,1-3.45,3.68,25.27,25.27,0,0,1-3.81,3.31,24,24,0,0,1,3.45-3.68A24.72,24.72,0,0,1,178.67,410.77Z" style="fill:#ebebeb"></path></g><g style="opacity:0.5"><path d="M238.33,297.45a43.46,43.46,0,0,1-3.41,5.76,42.59,42.59,0,0,1-3.84,5.48,45,45,0,0,1,3.41-5.76A41.45,41.45,0,0,1,238.33,297.45Z" style="fill:#ebebeb"></path></g><g style="opacity:0.5"><path d="M268,309.06a43.9,43.9,0,0,1-3-5.91,41.92,41.92,0,0,1-2.53-6.13,83.3,83.3,0,0,1,5.54,12Z" style="fill:#ebebeb"></path></g><path d="M333.25,400.4a3.18,3.18,0,0,1-3.32,1.89c-1.46-.16-2.79-1-4.26-1.11-.83-.09-1.78,0-2.4-.57a2.65,2.65,0,0,1-.45-2.45c.93-5.53,3.93-10.48,7.15-15.07s6.75-9,9-14.17c1.26-2.9,2.46-6.36,5.45-7.4a5.07,5.07,0,0,1,6.25,3.2c.75,2.48-.54,5.06-1.79,7.32L333.25,400.4" style="fill:#5B5858"></path><path d="M343.25,366.68a8.62,8.62,0,0,1-.47,1.41c-.33.89-.84,2.17-1.48,3.74-1.29,3.14-3.16,7.45-5.37,12.14s-4.37,8.87-6,11.86c-.8,1.49-1.47,2.69-1.95,3.51a8.2,8.2,0,0,1-.79,1.25,9,9,0,0,1,.61-1.34l1.81-3.6c1.53-3,3.62-7.22,5.83-11.9s4.14-9,5.51-12.07c.66-1.48,1.21-2.71,1.63-3.67A8.26,8.26,0,0,1,343.25,366.68Z" style="fill:#263238"></path><path d="M341.57,361.14a8.55,8.55,0,0,1-.76,1.35l-2.17,3.58c-1.83,3-4.3,7.22-6.88,12s-4.76,9.1-6.31,12.27l-1.82,3.77a9.53,9.53,0,0,1-.72,1.36,8.17,8.17,0,0,1,.53-1.44c.38-.92.95-2.23,1.68-3.84,1.46-3.22,3.6-7.62,6.18-12.37s5.12-8.93,7-11.91c1-1.49,1.75-2.68,2.31-3.49A7.74,7.74,0,0,1,341.57,361.14Z" style="fill:#263238"></path><g style="opacity:0.5"><path d="M336.73,393.3a17,17,0,0,1-5.42-1.69,17.38,17.38,0,0,1-4.88-2.91c.08-.13,2.25,1.18,5.09,2.44S336.77,393.16,336.73,393.3Z" style="fill:#ebebeb"></path></g><g style="opacity:0.5"><path d="M349,372.64a45.17,45.17,0,0,1-5.3-3,46.32,46.32,0,0,1-5.16-3.28,30.14,30.14,0,0,1,5.43,2.84A29.7,29.7,0,0,1,349,372.64Z" style="fill:#ebebeb"></path></g></g></svg>