<svg xmlns="http://www.w3.org/2000/svg" viewBox="0 0 500 500"><g id="freepik--background-simple--inject-440"><path d="M417.62,159.06,405.4,139.17c-22.18-22.55-56.17-32.79-87.12-26.24s-57.89,29.65-69,59.25c-6.57,17.41-8.4,37.46-20.86,51.28-16.21,18-43.74,18.55-68,17.8s-51.75-.11-67.88,17.95C82.43,270.51,79.22,286.59,80,301.74c2.16,40.09,30.45,75.94,66.43,93.76s78.35,19.41,117.72,11.57c55.17-11,107.63-41.13,139.16-87.71S442.85,209.33,417.62,159.06Z" style="fill:#e0e0e0"></path></g><g id="freepik--Character--inject-440"><path d="M202.91,227.25A22.76,22.76,0,0,1,189,192.79c-4.39-8.57-1-20.28,7.27-25.19a22,22,0,0,0,4.39-2.81c2.34-2.29,2.76-5.84,4-8.88a16.75,16.75,0,0,1,26.55-6.39c4.8-2.38,9.76-4.76,15.1-5.18s11.21,1.58,13.93,6.19c1.49,2.54,2,5.73,4.2,7.69s5.52,2.1,8.15,3.49c5,2.66,6.45,9.14,6.46,14.81s-.82,11.66,1.68,16.74c1.3,2.65,3.44,4.89,4.33,7.7a9.48,9.48,0,0,1-10.81,12.19c2.17,5,1.34,10.91-1.39,15.59s-7.17,8.17-12,10.63c-3.47,1.76-7.36,3.06-11.2,2.47-3.57-.54-6.72-2.65-9.36-5.11a35.69,35.69,0,0,1-10.94-21.3" style="fill:#263238"></path><path d="M216.2,160a5.9,5.9,0,0,0-6.42,4.76h0l-13.37,78.71c-1.84,9.24,10.51,17.32,20.42,19.21h0c10,1.92,11.38-2.9,13.39-11.63,3.36-14.59,4.53-20.09,4.52-20s13,.6,19.14-15.27c3-7.89,5.49-21.37,7.13-32.46,1.48-10-2.47-23.47-12.51-24.52Z" style="fill:#ffbe9d"></path><path d="M255.11,193.14a2.16,2.16,0,0,1-2.49,1.69,2.06,2.06,0,0,1-1.76-2.36,2.16,2.16,0,0,1,2.48-1.7A2.08,2.08,0,0,1,255.11,193.14Z" style="fill:#263238"></path><path d="M256.62,191c-.32.22-1.66-1.31-3.93-1.78s-4.17.3-4.36,0c-.09-.15.28-.59,1.12-1a5.9,5.9,0,0,1,3.56-.32,5.65,5.65,0,0,1,3.05,1.76C256.64,190.37,256.77,190.92,256.62,191Z" style="fill:#263238"></path><path d="M232.53,188.27A2.15,2.15,0,0,1,230,190a2.05,2.05,0,0,1-1.76-2.36,2.14,2.14,0,0,1,2.48-1.69A2.07,2.07,0,0,1,232.53,188.27Z" style="fill:#263238"></path><path d="M234.25,186c-.32.22-1.66-1.3-3.93-1.78s-4.17.3-4.36,0c-.09-.15.28-.59,1.12-1a6,6,0,0,1,3.56-.32,5.65,5.65,0,0,1,3.05,1.76C234.27,185.3,234.41,185.85,234.25,186Z" style="fill:#263238"></path><path d="M238.89,203.87a15.67,15.67,0,0,1,3.82.12c.6.06,1.17.07,1.35-.31a3,3,0,0,0,0-1.8c-.25-1.51-.5-3.1-.77-4.77-1-6.78-1.66-12.31-1.39-12.34s1.34,5.42,2.38,12.2l.69,4.78a3.43,3.43,0,0,1-.18,2.34,1.48,1.48,0,0,1-1.13.64,4,4,0,0,1-1-.07A15.35,15.35,0,0,1,238.89,203.87Z" style="fill:#263238"></path><path d="M234.74,231A42.74,42.74,0,0,1,214,220.47s3.08,12.77,19.85,14.74Z" style="fill:#eb996e"></path><path d="M236.77,209.13a4.19,4.19,0,0,0-3.34-2.3,3.84,3.84,0,0,0-2.87.83,2.41,2.41,0,0,0-.75,2.66,2.77,2.77,0,0,0,2.81,1.39,8.83,8.83,0,0,0,3.26-1.11,2.74,2.74,0,0,0,.79-.53.79.79,0,0,0,.18-.85" style="fill:#eb996e"></path><path d="M231.89,204c.37.06-.15,2.52,1.58,4.72s4.41,2.48,4.36,2.83c0,.16-.69.35-1.8.15a6.32,6.32,0,0,1-3.67-2.23,5.48,5.48,0,0,1-1.17-3.92C231.32,204.52,231.72,204,231.89,204Z" style="fill:#263238"></path><path d="M236.12,181.56c-.36.57-2.56-.21-5.29-.46s-5,0-5.26-.6c-.1-.3.39-.8,1.39-1.21a8.73,8.73,0,0,1,4.11-.53,8.93,8.93,0,0,1,3.93,1.33C235.89,180.7,236.28,181.28,236.12,181.56Z" style="fill:#263238"></path><path d="M257.19,186.93c-.51.43-2-.44-3.83-.86s-3.54-.4-3.79-1c-.11-.3.25-.76,1.05-1.1a5.67,5.67,0,0,1,6.14,1.51C257.31,186.14,257.41,186.72,257.19,186.93Z" style="fill:#263238"></path><path d="M228.12,157a16.3,16.3,0,0,0-12.48-5.24c-4.65.32-9.13,3.48-10.24,7.91-.72,2.88-.14,6.23-2,8.57s-5,2.58-7.52,3.93a10,10,0,0,0-4.83,11.35c1.09,3.68,4.34,6.9,3.85,10.68-.46,3.56-4,5.88-5.49,9.16-1.61,3.62-.36,8,2.11,11.16s4.37,9.7,7.79,11.84c2.67,1.67,6.74,2.83,10.25,1.52A16.47,16.47,0,0,0,218,219.1a12.83,12.83,0,0,0-1.28-10.64c-1.61-2.78-4.14-5.39-4-8.56.24-5,6.77-7.64,7.46-12.54.35-2.53-1-5-2-7.33s-1.73-5.2-.33-7.35c1.81-2.78,6-2.71,8.86-4.42a7.54,7.54,0,0,0,3.63-7,7.78,7.78,0,0,0-4.86-6.35" style="fill:#263238"></path><path d="M227.15,152.88a11.5,11.5,0,0,0,10.86,14c2.61.08,5.63-.6,7.52,1.21s1.33,5.36,3,7.55c2.36,3.14,7.47,1.77,10.9,3.66,2.66,1.45,3.85,4.54,5.24,7.23s3.75,5.46,6.77,5.23a33.55,33.55,0,0,0,.5-7.81,11.4,11.4,0,0,0-3-7.09c-1-1-2.27-1.78-3.17-2.89-1.94-2.41-1.78-5.84-2.66-8.81a12.58,12.58,0,0,0-8-8.24c-3.16-1-6.7-.77-9.67-2.25-2.2-1.08-3.91-3-6.17-4-4.4-1.86-9.38.51-13.42,3.08" style="fill:#263238"></path><path d="M253,258.91a36.74,36.74,0,0,1,10.13,25.89c-.3,16.1,2.29,45.3,2.29,45.3L310,357.32l-12.57,19.25L248.31,354.8,238,333.73Z" style="fill:#FFFFFF"></path><path d="M266.6,369.22s1.66-3.2-3-5.63H256l-14.78-25.49L253,258.91l-20.15-15.3-44.59-4-15.58,80.13,19.92,36.42,39.5,16.24Z" style="fill:#FFFFFF"></path><path d="M196.17,240.23l.89-7.55a2.4,2.4,0,0,1,3-2c11,8.65,22.41,13,34.4,9.59a3.13,3.13,0,0,1,2.2,3.76L232,262.92l-12.21,3.65-16.11-3.15-7.52-13.91Z" style="fill:#FFFFFF"></path><path d="M234.79,245.44a8.12,8.12,0,0,1-1.43.87,25.72,25.72,0,0,1-4.22,1.74A28.52,28.52,0,0,1,201,241.7a26.72,26.72,0,0,1-3.06-3.38,8.52,8.52,0,0,1-.92-1.4,56.81,56.81,0,0,0,4.28,4.46A29.24,29.24,0,0,0,229,247.63,54.61,54.61,0,0,0,234.79,245.44Z" style="fill:#263238"></path><g style="opacity:0.30000000000000004"><path d="M198.32,238.4a4.65,4.65,0,0,0,.55,4.43,13.37,13.37,0,0,0,3.38,3.2c4.33,3.22,8.82,6.42,14,7.89s11.25.92,15.22-2.71c1.15-1.06,2.05-3,.85-4-.89-.75-2.24-.29-3.33.13A25.49,25.49,0,0,1,198.92,238"></path></g><path d="M192.17,324.11,265,363.17l-26.29,15.89-50.11-14.7c-26.59-7-33.85-18.08-33.58-29.48.09-4.15-.39-44.66,1.39-64.53,2.44-27.06,31.86-30.71,31.86-30.71l-.51,23.14.33,28.26,1,25.93c2.66-1.33,3.32,3.66,3.32,3.66Z" style="fill:#FFFFFF"></path><path d="M188.63,320.06c-.17,0-.4-9.8-.51-21.89s-.06-21.9.11-21.9.39,9.8.5,21.9S188.79,320.06,188.63,320.06Z" style="fill:#263238"></path><path d="M191.91,325.45c-.08-.05.14-.49.26-1.23a4.07,4.07,0,0,0-2.67-4.57c-.7-.27-1.2-.29-1.2-.38s.5-.22,1.32,0a4,4,0,0,1,3,5.08C192.35,325.12,192,325.49,191.91,325.45Z" style="fill:#263238"></path><path d="M191.91,325.45s0,0,.13.11.23.16.43.27c.38.23,1,.56,1.7,1,1.5.82,3.69,2,6.4,3.38l21.23,10.88L243,351.91l6.42,3.33,1.73.94a3.25,3.25,0,0,1,.59.36,3,3,0,0,1-.64-.25l-1.79-.83-6.5-3.16c-5.48-2.7-13-6.47-21.33-10.71s-15.79-8.13-21.16-11S191.72,325.68,191.91,325.45Z" style="fill:#263238"></path><path d="M188.32,269.61c-.09,0-.25-1.64-.63-4.27A36.93,36.93,0,0,0,185,255.4a20.07,20.07,0,0,0-6.38-7.92,28.66,28.66,0,0,0-3.74-2.07,3.62,3.62,0,0,1,1.13.29,12.81,12.81,0,0,1,2.86,1.42,19.25,19.25,0,0,1,6.69,8,32.79,32.79,0,0,1,2.61,10.13c.14,1.34.21,2.42.23,3.17A4.41,4.41,0,0,1,188.32,269.61Z" style="fill:#263238"></path><g style="opacity:0.30000000000000004"><path d="M255.19,358.63c2.42-4.65,1.83-10.29.46-15.35s-3.44-10-3.83-15.21c-.35-4.53.6-9.05,1.51-13.5s1.79-9,1.32-13.5-2.49-9.09-6.29-11.58c1.51,3.75,3,7.55,3.54,11.57s-.12,8.33-2.56,11.55c-1.25,1.65-3,3-3.77,4.9-1.08,2.53-.92,5.4-1.73,7.94-.88,2.78-2.48,12.12-2.48,12.12-.11.52,2.76,5.8,5.61,9.57s6.28,7.16,8.34,11.41"></path></g><path d="M255.37,358.31a2.05,2.05,0,0,1-.3-.35c-.21-.28-.47-.64-.8-1.07l-3-4.1L241,338.24l-.07-.09,0-.12c1.15-5.62,2.44-12,3.82-18.76.15-.72.29-1.43.43-2.12l0-.09.07-.06A23,23,0,0,0,252,301a21.56,21.56,0,0,0-4.67-12.69l0,0v-.06c-.18-3-.33-5.4-.44-7.12,0-.78-.07-1.4-.1-1.89a2.91,2.91,0,0,1,0-.65,3,3,0,0,1,.1.64c.05.49.11,1.11.19,1.89.15,1.71.36,4.11.63,7.1l-.05-.11a21.72,21.72,0,0,1,4.92,12.91,20.76,20.76,0,0,1-1.63,8.54,24.46,24.46,0,0,1-5.2,7.94l.08-.15c-.14.69-.28,1.4-.43,2.12-1.4,6.75-2.72,13.14-3.88,18.75l0-.21,10.11,14.68c1.19,1.75,2.13,3.16,2.82,4.18.3.45.54.82.73,1.12A1.71,1.71,0,0,1,255.37,358.31Z" style="fill:#263238"></path><g style="opacity:0.30000000000000004"><path d="M202.48,319.86c-.73-.57-1.86.32-1.82,1.24a2.92,2.92,0,0,0,1.61,2.12,12.16,12.16,0,0,0,7.32,1.46,14.05,14.05,0,0,0,8.55-3.5,9.24,9.24,0,0,0,2.88-8.52,1.31,1.31,0,0,0-.3-.69c-.59-.61-1.58.07-2.17.69A23.2,23.2,0,0,1,203,319.83"></path></g><g style="opacity:0.30000000000000004"><path d="M188.27,319.35a6.85,6.85,0,0,0-8,2,2.4,2.4,0,0,0-.48,2.61,2,2,0,0,0,2.08.7,5.62,5.62,0,0,0,2-1.13c1.35-1,2.68-2.12,4-3.24a1.44,1.44,0,0,0,.45-.56.5.5,0,0,0-.21-.62"></path></g><path d="M182.11,325.5c-.07,0,0-.6.35-1.47a8.13,8.13,0,0,1,2.15-2.92,8.25,8.25,0,0,1,3.19-1.75c.9-.24,1.48-.22,1.49-.14s-2.24.53-4.28,2.35S182.28,325.57,182.11,325.5Z" style="fill:#263238"></path><path d="M281.64,422.82c-.12.11-15.4-16-34.11-35.93s-33.8-36.23-33.68-36.34,15.4,16,34.12,35.92S281.77,422.7,281.64,422.82Z" style="fill:#455a64"></path><path d="M168.63,273.79a24.27,24.27,0,0,1-.72-5,25.69,25.69,0,0,1-.2-5.09,26,26,0,0,1,.72,5A25.69,25.69,0,0,1,168.63,273.79Z" style="fill:#fafafa"></path><path d="M174.21,290.42a44.8,44.8,0,0,1,1.41-9.5,21.44,21.44,0,0,1-.44,4.79A22.34,22.34,0,0,1,174.21,290.42Z" style="fill:#fafafa"></path><path d="M163.55,301.68a25.21,25.21,0,0,1-.52-5,23.79,23.79,0,0,1,0-5,24.84,24.84,0,0,1,.51,5A23.28,23.28,0,0,1,163.55,301.68Z" style="fill:#fafafa"></path><path d="M179,315.76a17.06,17.06,0,0,1-2.15-3.67,18.23,18.23,0,0,1-1.69-3.9,17.39,17.39,0,0,1,2.15,3.67A18.23,18.23,0,0,1,179,315.76Z" style="fill:#fafafa"></path><path d="M167.09,324.2a11.84,11.84,0,0,1-2.75,2.23,12,12,0,0,1-3.06,1.8A12.35,12.35,0,0,1,164,326,12.21,12.21,0,0,1,167.09,324.2Z" style="fill:#fafafa"></path><path d="M191.2,331.21a9.82,9.82,0,0,1-1.47-2.8,9.52,9.52,0,0,1-1-3,9.65,9.65,0,0,1,1.47,2.8A9.76,9.76,0,0,1,191.2,331.21Z" style="fill:#fafafa"></path><path d="M217,342.32a27.85,27.85,0,0,1-4.95-2.14,28.27,28.27,0,0,1-4.73-2.6,27,27,0,0,1,4.95,2.14A28.27,28.27,0,0,1,217,342.32Z" style="fill:#fafafa"></path><path d="M223.15,356.35A14.38,14.38,0,0,1,225,353a13.62,13.62,0,0,1,2.26-3.1,14.85,14.85,0,0,1-1.82,3.38A14,14,0,0,1,223.15,356.35Z" style="fill:#fafafa"></path><path d="M235.25,368a29.1,29.1,0,0,1-.08-5.55,30.22,30.22,0,0,1,.44-5.53,59.17,59.17,0,0,1-.36,11.08Z" style="fill:#fafafa"></path><path d="M196.8,251.74a11.49,11.49,0,0,1-3.71-1.37,11.8,11.8,0,0,1-3.33-2.13,20.86,20.86,0,0,1,3.56,1.66A22,22,0,0,1,196.8,251.74Z" style="fill:#fafafa"></path><path d="M178.67,254.77a22,22,0,0,1-5.63-3.69,11.2,11.2,0,0,1,3,1.63A10.93,10.93,0,0,1,178.67,254.77Z" style="fill:#fafafa"></path><path d="M196.23,276.17a51.84,51.84,0,0,1,4.05-9.49,50.06,50.06,0,0,1-4.05,9.49Z" style="fill:#fafafa"></path><path d="M199.59,298a40.09,40.09,0,0,1-2.58-4.11,37.71,37.71,0,0,1-2.49-4.17,16.38,16.38,0,0,1,2.93,3.9A16.14,16.14,0,0,1,199.59,298Z" style="fill:#fafafa"></path><path d="M218.62,273.93a18.76,18.76,0,0,1-3.27,2.93,18.54,18.54,0,0,1-3.59,2.51,37.54,37.54,0,0,1,6.86-5.44Z" style="fill:#fafafa"></path><path d="M216.34,263a26.15,26.15,0,0,1-2.87-4.35,26.42,26.42,0,0,1-2.42-4.62,26.15,26.15,0,0,1,2.87,4.35A26.42,26.42,0,0,1,216.34,263Z" style="fill:#fafafa"></path><path d="M231.55,254a17.9,17.9,0,0,1-1.75,3.92,17.69,17.69,0,0,1-2.22,3.68,18.49,18.49,0,0,1,1.76-3.92A17.76,17.76,0,0,1,231.55,254Z" style="fill:#fafafa"></path><path d="M215.27,247.53a19.21,19.21,0,0,1,.41-2.63,20.3,20.3,0,0,1,.28-2.65,4.56,4.56,0,0,1,.24,2.72A4.44,4.44,0,0,1,215.27,247.53Z" style="fill:#fafafa"></path><path d="M229.15,246.82a6.45,6.45,0,0,1-2.26-1.28c-1.17-.82-2-1.59-2-1.7a6.54,6.54,0,0,1,2.26,1.28C228.36,245.94,229.23,246.71,229.15,246.82Z" style="fill:#fafafa"></path><path d="M203.48,237.51c0,.14-.67.26-1.5.26s-1.49-.12-1.49-.26.67-.26,1.49-.26S203.48,237.36,203.48,237.51Z" style="fill:#fafafa"></path><path d="M246.77,261.73a21.61,21.61,0,0,1-3.5-3.18,21.94,21.94,0,0,1-3.13-3.55,21.61,21.61,0,0,1,3.5,3.18A21.94,21.94,0,0,1,246.77,261.73Z" style="fill:#fafafa"></path><path d="M238.27,283.57a33.3,33.3,0,0,1,2-10.19,37.27,37.27,0,0,1-.88,5.12A36.08,36.08,0,0,1,238.27,283.57Z" style="fill:#fafafa"></path><path d="M228.05,293.6a44,44,0,0,1-1.05-5.79,46.27,46.27,0,0,1-.81-5.83,44.07,44.07,0,0,1,1.86,11.62Z" style="fill:#fafafa"></path><path d="M214.57,307.65a26.28,26.28,0,0,1-4.24-8.78,36.9,36.9,0,0,1,2.18,4.36A39.39,39.39,0,0,1,214.57,307.65Z" style="fill:#fafafa"></path><path d="M205.62,316a26,26,0,0,1-5-1.19,25.54,25.54,0,0,1-4.86-1.7,25.6,25.6,0,0,1,5,1.2A24.83,24.83,0,0,1,205.62,316Z" style="fill:#fafafa"></path><path d="M212.48,325.12a26.27,26.27,0,0,1-2.57,2.18,23.78,23.78,0,0,1-2.53,2.22,10.53,10.53,0,0,1,5.1-4.4Z" style="fill:#fafafa"></path><path d="M224.47,336a19.92,19.92,0,0,1-.86-4.54,20.82,20.82,0,0,1-.34-4.6,40.72,40.72,0,0,1,1.2,9.14Z" style="fill:#fafafa"></path><path d="M238.12,332.28a15.73,15.73,0,0,1-6.86-3.34,23.47,23.47,0,0,1,3.45,1.62A22.39,22.39,0,0,1,238.12,332.28Z" style="fill:#fafafa"></path><path d="M241.84,310.05a39.48,39.48,0,0,1-4.58,2,40.4,40.4,0,0,1-4.61,1.92,16.75,16.75,0,0,1,4.41-2.39A17,17,0,0,1,241.84,310.05Z" style="fill:#fafafa"></path><path d="M244.82,303.6a22.45,22.45,0,0,1-3.25-3.64,22.87,22.87,0,0,1-2.85-4,22.45,22.45,0,0,1,3.25,3.64A23.31,23.31,0,0,1,244.82,303.6Z" style="fill:#fafafa"></path><path d="M237,349a18.19,18.19,0,0,1-.89-6.15A18.88,18.88,0,0,1,237,349Z" style="fill:#fafafa"></path><path d="M258.9,329.26a23.46,23.46,0,0,1-3.37-3.52,22.7,22.7,0,0,1-3-3.87,23.51,23.51,0,0,1,3.36,3.53A22.64,22.64,0,0,1,258.9,329.26Z" style="fill:#fafafa"></path><path d="M257.47,317.34A20.65,20.65,0,0,1,259,313a20,20,0,0,1,2-4.11,40.09,40.09,0,0,1-3.56,8.43Z" style="fill:#fafafa"></path><path d="M259.11,295.48a15.5,15.5,0,0,1-2.53-3,15.15,15.15,0,0,1-2.11-3.3,15.1,15.1,0,0,1,2.53,3A14.46,14.46,0,0,1,259.11,295.48Z" style="fill:#fafafa"></path><path d="M256.44,275.8a48.3,48.3,0,0,1-6.39-7.86,49.46,49.46,0,0,1,6.39,7.86Z" style="fill:#fafafa"></path><path d="M262.77,350.06a23.3,23.3,0,0,1,2.24-4.35,22.44,22.44,0,0,1,2.7-4.08,23.45,23.45,0,0,1-2.25,4.34A22.88,22.88,0,0,1,262.77,350.06Z" style="fill:#fafafa"></path><path d="M275.38,358.65a29.18,29.18,0,0,1-1.78-5.28,30.86,30.86,0,0,1-1.27-5.43,29.47,29.47,0,0,1,1.78,5.29A31.08,31.08,0,0,1,275.38,358.65Z" style="fill:#fafafa"></path><path d="M289.8,356.37a10.36,10.36,0,0,1-1.49-2.88,10.13,10.13,0,0,1-1-3.08,19.89,19.89,0,0,1,2.51,6Z" style="fill:#fafafa"></path><path d="M257.78,374.14l77.83-37.81a25.9,25.9,0,0,1,24.84,1.21h0a25.89,25.89,0,0,1,6.17,38.91L332.9,415.92l-86.1,11.9-8.06-48.76,9.57-14.82Z" style="fill:#263238"></path><path d="M304.79,390.28s-.31.31-1,.79-1.57,1.13-2.74,1.93c-2.33,1.6-5.61,3.74-9.31,6s-7.13,4.13-9.64,5.45c-1.25.66-2.27,1.17-3,1.51a4.81,4.81,0,0,1-1.14.48,4.84,4.84,0,0,1,1-.69L282,404c2.45-1.41,5.82-3.37,9.52-5.6s7-4.3,9.4-5.8l2.84-1.77A5.58,5.58,0,0,1,304.79,390.28Z" style="fill:#455a64"></path><path d="M140.41,393.18s7.73-37.33,11.7-43.07,12.37-18.59,23-19.92,32.26,11.39,36.21,16.39c10,12.64,72.94,79.3,72.17,78.43l-20.29,14-21.44-6.8H180.18S137.55,425,140.41,393.18Z" style="fill:#263238"></path><path d="M241.73,432.21a6.12,6.12,0,0,1-.95,0,19.6,19.6,0,0,1-2.67-.43,50,50,0,0,1-9.37-3.31A140.3,140.3,0,0,1,201,411.07c-10.15-7.78-19-15.33-24.8-21.38a62.51,62.51,0,0,1-6.44-7.56,19,19,0,0,1-1.44-2.29,4.67,4.67,0,0,1-.44-.83,5.48,5.48,0,0,1,.55.77A24.75,24.75,0,0,0,170,382a69.8,69.8,0,0,0,6.56,7.4,257.15,257.15,0,0,0,24.87,21.19A147.56,147.56,0,0,0,228.92,428a54.52,54.52,0,0,0,9.25,3.47,25.71,25.71,0,0,0,2.63.54A5.59,5.59,0,0,1,241.73,432.21Z" style="fill:#455a64"></path><path d="M214.15,423.88a5.87,5.87,0,0,1-.8.48l-2.35,1.3c-1,.56-2.35,1.07-3.86,1.75-.75.35-1.6.58-2.48.91s-1.81.68-2.83.91a56.33,56.33,0,0,1-14.45,2.15,60.2,60.2,0,0,1-17.72-2.29,55,55,0,0,1-16.15-7.66c-1.1-.84-2.22-1.58-3.23-2.43a24.5,24.5,0,0,1-2.68-2.72,32.63,32.63,0,0,1-3.79-5.68,29.8,29.8,0,0,1-3.19-9.31,16.62,16.62,0,0,1-.24-2.67,5.54,5.54,0,0,1,0-.93c.07,0,0,1.29.44,3.56a31.23,31.23,0,0,0,3.34,9.15A32.71,32.71,0,0,0,148,416a23.5,23.5,0,0,0,2.64,2.64c1,.82,2.11,1.56,3.2,2.37a55.06,55.06,0,0,0,16,7.54,60.39,60.39,0,0,0,17.54,2.31,57,57,0,0,0,14.34-2c1-.21,1.93-.59,2.82-.86s1.74-.52,2.49-.86c1.51-.65,2.85-1.12,3.88-1.65l2.39-1.18A4.79,4.79,0,0,1,214.15,423.88Z" style="fill:#455a64"></path><path d="M218.12,422.53s-13.91,5.67-12.46,12.15,8.63,9.5,15.89,8.81,20.61-6.68,20.61-6.68l6.88-3.64s-8.36-.13-12.59-1.64C231.56,429.77,218.12,422.53,218.12,422.53Z" style="fill:#FFFFFF"></path><path d="M235.33,433.9l49.37,7.77L389,431.28,331.83,415.6l-96.47,13.87a2.24,2.24,0,0,0-1.92,2.22h0A2.24,2.24,0,0,0,235.33,433.9Z" style="fill:#455a64"></path><path d="M298,363.09l-12,70.67a6.12,6.12,0,0,0,6.64,7.11L389,431.28a6.12,6.12,0,0,0,5.42-5l13-71.54a6.13,6.13,0,0,0-6.68-7.19L303.38,358A6.12,6.12,0,0,0,298,363.09Z" style="fill:#455a64"></path><path d="M233.44,431.69a.74.74,0,0,1,.26,0l.76.09,2.93.41,10.88,1.63,36.87,5.7-.34.25c.6-3.68,1.23-7.52,1.88-11.44,2.9-17.39,5.53-33.12,7.44-44.57,1-5.66,1.77-10.26,2.33-13.49l.66-3.66.19-.95a1.86,1.86,0,0,1,.08-.32s0,.11,0,.33-.07.56-.13,1l-.54,3.68c-.52,3.24-1.24,7.85-2.14,13.53-1.86,11.45-4.43,27.19-7.27,44.59-.64,3.92-1.28,7.75-1.89,11.44l-.05.3-.29-.05-36.84-5.91-10.85-1.81-2.92-.51-.75-.14Z" style="fill:#263238"></path><path d="M358.2,393.7c0,3.83-2.77,6.94-6.19,6.94s-6.19-3.11-6.19-6.94,2.77-6.95,6.19-6.95S358.2,389.86,358.2,393.7Z" style="fill:#fafafa"></path><path d="M287,387.1c-3.4-3.05.42-6.61-5.72-12.41-4.59-4.33-13.28-11.75-30.12-17.37l-10.55,18.84,18.36,5.92-.18,12a4.38,4.38,0,0,0,4.43,4.44l9.53-.11s-2.78,11.75-2.32,12.47a2.52,2.52,0,0,0,4.49-.48c.38-1.59,8.22-20.58,8.22-20.58s5.13,4.43,5.85,1.89C288.94,391.69,290.35,390.16,287,387.1Z" style="fill:#ffbe9d"></path><path d="M261.31,398.79c0-.07.45-.36,1.08-1a7.59,7.59,0,0,0,2.18-6.27,10.6,10.6,0,0,1-.23-1.44,3,3,0,0,1,.55,1.39,6.93,6.93,0,0,1-2.28,6.56A3,3,0,0,1,261.31,398.79Z" style="fill:#eb996e"></path><path d="M267.44,398.39a9.82,9.82,0,0,0,2-7.78,2.39,2.39,0,0,1,.41,1.18,7.3,7.3,0,0,1-.13,3,7.19,7.19,0,0,1-1.35,2.72C267.87,398.16,267.47,398.43,267.44,398.39Z" style="fill:#eb996e"></path><path d="M274.83,391.5c.05,0,.17.38.19,1a6.33,6.33,0,0,1-1.95,4.57c-.48.44-.84.63-.88.58a9.25,9.25,0,0,0,2.64-6.18Z" style="fill:#eb996e"></path><path d="M202.2,224.59l-.26,0-.76-.09a7.66,7.66,0,0,1-1.2-.28,9.76,9.76,0,0,1-1.6-.57,14,14,0,0,1-3.84-2.58,14.92,14.92,0,0,1-3.49-5.05,14,14,0,0,1-1-3.46,12.82,12.82,0,0,1,.1-3.9c.47-2.67,2-5.25,2-8.19a10.53,10.53,0,0,0-1.19-4.3,12.73,12.73,0,0,1-1.4-4.66,6.47,6.47,0,0,1,2.06-4.59,16.92,16.92,0,0,1,4.24-3,22.54,22.54,0,0,0,4.25-2.73,8.91,8.91,0,0,0,2.56-4c1-3.07,1-6.26,1.58-9.22a12.33,12.33,0,0,1,1.58-4.15,8.45,8.45,0,0,1,3.05-2.87,19.33,19.33,0,0,1,7.19-1.89,34.2,34.2,0,0,0,6-.94,12.16,12.16,0,0,0,4.12-1.91,6.79,6.79,0,0,0,1.92-2.13c.32-.57.44-.91.47-.89a4.88,4.88,0,0,1-.38.94,6.5,6.5,0,0,1-1.89,2.24,12.22,12.22,0,0,1-4.16,2,33.64,33.64,0,0,1-6,1,19.21,19.21,0,0,0-7,1.9,7.83,7.83,0,0,0-2.87,2.74,11.75,11.75,0,0,0-1.5,4c-.6,2.9-.56,6.11-1.57,9.29a9.44,9.44,0,0,1-2.7,4.26,22.45,22.45,0,0,1-4.34,2.79,16.67,16.67,0,0,0-4.12,2.87,6,6,0,0,0-1.92,4.22c.12,3.16,2.62,5.77,2.56,9a13.68,13.68,0,0,1-.87,4.34,32,32,0,0,0-1.16,3.93,12.64,12.64,0,0,0-.13,3.77,13.79,13.79,0,0,0,.9,3.37,14.75,14.75,0,0,0,3.35,5,14,14,0,0,0,3.73,2.61A16.83,16.83,0,0,0,202.2,224.59Z" style="fill:#455a64"></path><path d="M279.05,188.43c-.07,0-.07-.94-.47-2.57a15.22,15.22,0,0,0-3.28-6.22,14.61,14.61,0,0,0-9-5,58.93,58.93,0,0,1-6.22-1,9.38,9.38,0,0,1-5.49-3.94,30.4,30.4,0,0,1-2.86-6.15A23.37,23.37,0,0,0,249,158a15.55,15.55,0,0,0-8.58-5.66,16,16,0,0,0-7-.23,15.69,15.69,0,0,0-1.87.52,3,3,0,0,1-.65.19,3.6,3.6,0,0,1,.62-.29,11.82,11.82,0,0,1,1.86-.61,15.32,15.32,0,0,1,7.16.06,15.79,15.79,0,0,1,8.89,5.73,23.74,23.74,0,0,1,2.84,5.65,30.66,30.66,0,0,0,2.81,6,8.93,8.93,0,0,0,5.2,3.74c2.07.57,4.18.68,6.16,1a14.85,14.85,0,0,1,9.16,5.22,15,15,0,0,1,3.2,6.41,11.69,11.69,0,0,1,.26,1.94A5,5,0,0,1,279.05,188.43Z" style="fill:#455a64"></path></g></svg>